<?xml version="1.0" encoding="utf-8"?>
<!-- Generator: Adobe Illustrator 25.0.0, SVG Export Plug-In . SVG Version: 6.00 Build 0)  -->
<svg version="1.1" id="Layer_1" xmlns="http://www.w3.org/2000/svg" xmlns:xlink="http://www.w3.org/1999/xlink" x="0px" y="0px"
	 viewBox="0 0 1000 282.24" style="enable-background:new 0 0 1000 282.24;" xml:space="preserve">
<style type="text/css">
	.st0{fill:#262626;}
	.st1{fill:url(#SVGID_1_);}
	.st2{fill:url(#SVGID_2_);}
	.st3{fill:url(#SVGID_3_);}
	.st4{fill:#919191;}
	.st5{fill:url(#SVGID_4_);}
	.st6{fill:url(#SVGID_5_);}
	.st7{fill:url(#SVGID_6_);}
	.st8{fill:url(#SVGID_7_);}
	.st9{fill:url(#SVGID_8_);}
	.st10{fill:url(#SVGID_9_);}
	.st11{fill:url(#SVGID_10_);}
	.st12{fill:url(#SVGID_11_);}
	.st13{fill:url(#SVGID_12_);}
	.st14{fill:url(#SVGID_13_);}
	.st15{fill:url(#SVGID_14_);}
	.st16{fill:url(#SVGID_15_);}
	.st17{fill:url(#SVGID_16_);}
	.st18{fill:url(#SVGID_17_);}
	.st19{fill:url(#SVGID_18_);}
	.st20{fill:url(#SVGID_19_);}
	.st21{fill:url(#SVGID_20_);}
</style>
<g>
	<g>
		<g>
			<path class="st0" d="M119.03,99.27H106c-2.31,6.05-6.53,11.16-11.93,14.59c7.97,5.38,13.21,14.49,13.21,24.82
				c0,11.77-6.79,21.95-16.67,26.83c7.04,3.26,12.6,9.19,15.39,16.48h1.28h11.74h21.84c1.27,0,2.3-1.03,2.3-2.3l0,0
				c0-1.27-1.03-2.3-2.3-2.3h-21.84V99.27z"/>
			<path class="st0" d="M78.04,222.59c-16.53,0-29.92-13.4-29.92-29.92c0-11.77,6.79-21.95,16.67-26.83
				c-7.04-3.26-12.6-9.19-15.39-16.48H33.81v73.24c0,7.9,6.41,14.31,14.31,14.31h56.6c7.9,0,14.31-6.41,14.31-14.31v-19.24H106
				C101.7,214.6,90.81,222.59,78.04,222.59z"/>
			<path class="st0" d="M119.03,73.25V59.64c0-7.9-6.41-14.31-14.31-14.31h-56.6c-7.9,0-14.31,6.41-14.31,14.31v63.75H13.68
				c-1.27,0-2.3,1.03-2.3,2.3v0c0,1.27,1.03,2.3,2.3,2.3h20.13h13.46h2.13c2.31-6.05,6.53-11.16,11.93-14.59
				c-8.18-5.52-13.48-14.96-13.2-25.63c0.41-15.4,12.79-28.19,28.16-29.07c13.51-0.77,25.21,7.43,29.71,19.19h13.02v-0.05h21.84
				c1.27,0,2.3-1.03,2.3-2.3l0,0c0-1.27-1.03-2.3-2.3-2.3H119.03z"/>
		</g>
		<radialGradient id="SVGID_1_" cx="78.4808" cy="89.6241" r="19.4991" gradientUnits="userSpaceOnUse">
			<stop  offset="0" style="stop-color:#EF4136"/>
			<stop  offset="1" style="stop-color:#BE1E2D"/>
		</radialGradient>
		<path class="st1" d="M77.83,105.52c9.8,0,17.75-7.95,17.75-17.75c0-9.8-7.94-17.75-17.75-17.75s-17.75,7.94-17.75,17.75
			C60.08,97.57,68.03,105.52,77.83,105.52z"/>
		<radialGradient id="SVGID_2_" cx="77.3905" cy="139.5558" r="19.9383" gradientUnits="userSpaceOnUse">
			<stop  offset="0" style="stop-color:#FFF200"/>
			<stop  offset="1" style="stop-color:#FBB040"/>
		</radialGradient>
		<path class="st2" d="M77.83,156.42c9.8,0,17.75-7.94,17.75-17.75s-7.94-17.75-17.75-17.75s-17.75,7.95-17.75,17.75
			S68.03,156.42,77.83,156.42z"/>
		<radialGradient id="SVGID_3_" cx="77.702" cy="191.3064" r="21.6497" gradientUnits="userSpaceOnUse">
			<stop  offset="0" style="stop-color:#39B54A"/>
			<stop  offset="1" style="stop-color:#006838"/>
		</radialGradient>
		<path class="st3" d="M60.08,191.91c0,9.8,7.95,17.75,17.75,17.75s17.75-7.95,17.75-17.75s-7.94-17.75-17.75-17.75
			S60.08,182.11,60.08,191.91z"/>
	</g>
	<g>
		<path class="st4" d="M182.77,225.64v-22.51h4.34l10.86,13.61l10.62-13.61h4.3v22.51h-4.97v-13.91c0-0.27,0.02-0.61,0.05-1.02
			c0.04-0.41,0.09-0.87,0.14-1.38c-0.29,0.58-0.55,1.06-0.76,1.44c-0.22,0.38-0.41,0.69-0.59,0.93l-8.66,11.25h-1.07l-8.68-11.29
			c-0.32-0.43-0.6-0.83-0.82-1.2c-0.23-0.38-0.41-0.74-0.55-1.1c0.04,0.47,0.07,0.89,0.1,1.28c0.02,0.38,0.03,0.75,0.03,1.11v13.91
			H182.77z"/>
		<path class="st4" d="M233.16,225.64l13.04-22.51h5.17l13.22,22.51h-6.02l-2.77-4.92h-14.61l-2.68,4.92H233.16z M243.47,216.66
			h10.1l-4.97-9.16L243.47,216.66z"/>
		<path class="st4" d="M285.36,225.64v-22.51h3.67l16.23,13.27c0.55,0.44,1.04,0.85,1.46,1.25c0.42,0.39,0.8,0.79,1.15,1.2
			c-0.09-1.26-0.14-2.16-0.17-2.68c-0.03-0.53-0.05-0.93-0.05-1.21v-11.82h4.82v22.51h-3.66l-16.93-13.91
			c-0.41-0.36-0.76-0.68-1.07-0.96c-0.31-0.28-0.59-0.57-0.85-0.87c0.07,0.7,0.13,1.35,0.16,1.97c0.04,0.62,0.06,1.15,0.06,1.61
			v12.16H285.36z"/>
		<path class="st4" d="M333.22,225.64l13.04-22.51h5.17l13.22,22.51h-6.02l-2.77-4.92h-14.61l-2.68,4.92H333.22z M343.54,216.66
			h10.1l-4.97-9.16L343.54,216.66z"/>
		<path class="st4" d="M406.31,207.16h-16.75v14.25h16.75v-5.01h-8.77v-3.84h13.98v7.75c0,2.06-0.39,3.46-1.18,4.21
			c-0.78,0.74-2.29,1.12-4.54,1.12h-15.9c-2.24,0-3.75-0.37-4.54-1.12c-0.78-0.74-1.18-2.15-1.18-4.21v-11.86
			c0-2.04,0.39-3.44,1.18-4.19c0.78-0.75,2.3-1.13,4.54-1.13h15.9c2.21,0,3.71,0.37,4.51,1.11c0.8,0.74,1.2,2.07,1.2,4v0.51
			l-5.21,0.92V207.16z"/>
		<path class="st4" d="M436.27,225.64v-22.51h23.6v3.84h-18.24v5.03h10.64v3.83h-10.64v5.58h18.45v4.24H436.27z"/>
		<path class="st4" d="M483.34,225.64v-22.51h4.34l10.86,13.61l10.62-13.61h4.3v22.51h-4.97v-13.91c0-0.27,0.02-0.61,0.05-1.02
			c0.04-0.41,0.09-0.87,0.14-1.38c-0.29,0.58-0.55,1.06-0.76,1.44c-0.22,0.38-0.41,0.69-0.59,0.93l-8.66,11.25h-1.07l-8.68-11.29
			c-0.32-0.43-0.6-0.83-0.82-1.2c-0.23-0.38-0.41-0.74-0.55-1.1c0.04,0.47,0.07,0.89,0.1,1.28c0.02,0.38,0.03,0.75,0.03,1.11v13.91
			H483.34z"/>
		<path class="st4" d="M538.14,225.64v-22.51h23.6v3.84H543.5v5.03h10.64v3.83H543.5v5.58h18.45v4.24H538.14z"/>
		<path class="st4" d="M585.22,225.64v-22.51h3.67l16.23,13.27c0.55,0.44,1.04,0.85,1.46,1.25c0.42,0.39,0.8,0.79,1.15,1.2
			c-0.09-1.26-0.14-2.16-0.17-2.68c-0.03-0.53-0.05-0.93-0.05-1.21v-11.82h4.82v22.51h-3.66l-16.93-13.91
			c-0.41-0.36-0.76-0.68-1.07-0.96c-0.31-0.28-0.59-0.57-0.85-0.87c0.07,0.7,0.13,1.35,0.16,1.97c0.04,0.62,0.06,1.15,0.06,1.61
			v12.16H585.22z"/>
		<path class="st4" d="M648.21,207.16v18.49h-5.36v-18.49h-10.58v-4.03h26.56v4.03H648.21z"/>
		<path class="st4" d="M729.47,207.07h-15.09v4.83h14.37c2.25,0,3.78,0.38,4.57,1.13c0.79,0.75,1.19,2.15,1.19,4.19v3.09
			c0,2.05-0.4,3.44-1.19,4.2s-2.31,1.13-4.57,1.13h-14.24c-2.25,0-3.78-0.38-4.57-1.13c-0.79-0.75-1.19-2.15-1.19-4.2v-0.62
			l4.73-0.96v2.66h16.29v-5.13h-14.37c-2.24,0-3.75-0.38-4.54-1.13c-0.79-0.75-1.18-2.15-1.18-4.19v-2.49
			c0-2.04,0.39-3.44,1.18-4.19c0.78-0.75,2.29-1.13,4.54-1.13h13.08c2.17,0,3.66,0.36,4.48,1.09c0.82,0.72,1.24,2.01,1.24,3.85v0.47
			l-4.74,1.09V207.07z"/>
		<path class="st4" d="M765.47,225.64v-10.07l-11.97-12.44h7.15l7.92,8.65l7.94-8.65h6.3l-11.93,12.31v10.2H765.47z"/>
		<path class="st4" d="M822.42,207.07h-15.09v4.83h14.37c2.25,0,3.78,0.38,4.57,1.13c0.79,0.75,1.19,2.15,1.19,4.19v3.09
			c0,2.05-0.4,3.44-1.19,4.2c-0.79,0.75-2.31,1.13-4.57,1.13h-14.24c-2.25,0-3.78-0.38-4.57-1.13s-1.19-2.15-1.19-4.2v-0.62
			l4.73-0.96v2.66h16.29v-5.13h-14.37c-2.24,0-3.75-0.38-4.54-1.13c-0.79-0.75-1.18-2.15-1.18-4.19v-2.49
			c0-2.04,0.39-3.44,1.18-4.19c0.78-0.75,2.29-1.13,4.54-1.13h13.08c2.17,0,3.66,0.36,4.48,1.09c0.82,0.72,1.24,2.01,1.24,3.85v0.47
			l-4.74,1.09V207.07z"/>
		<path class="st4" d="M862.72,207.16v18.49h-5.36v-18.49h-10.58v-4.03h26.56v4.03H862.72z"/>
		<path class="st4" d="M893.3,225.64v-22.51h23.6v3.84h-18.24v5.03h10.64v3.83h-10.64v5.58h18.45v4.24H893.3z"/>
		<path class="st4" d="M940.38,225.64v-22.51h4.34l10.86,13.61l10.62-13.61h4.3v22.51h-4.97v-13.91c0-0.27,0.02-0.61,0.05-1.02
			c0.04-0.41,0.09-0.87,0.14-1.38c-0.29,0.58-0.55,1.06-0.76,1.44c-0.22,0.38-0.41,0.69-0.59,0.93l-8.66,11.25h-1.07l-8.68-11.29
			c-0.32-0.43-0.6-0.83-0.82-1.2c-0.23-0.38-0.41-0.74-0.55-1.1c0.04,0.47,0.07,0.89,0.1,1.28c0.02,0.38,0.03,0.75,0.03,1.11v13.91
			H940.38z"/>
	</g>
	<linearGradient id="SVGID_4_" gradientUnits="userSpaceOnUse" x1="219.7462" y1="24.7408" x2="219.7462" y2="167.1501">
		<stop  offset="0" style="stop-color:#39B54A"/>
		<stop  offset="1" style="stop-color:#006838"/>
	</linearGradient>
	<path class="st5" d="M278.62,45.43v21.01h-48.37v96.74h-21.01V66.44h-48.37V45.43H278.62z"/>
	<linearGradient id="SVGID_5_" gradientUnits="userSpaceOnUse" x1="348.5554" y1="24.7408" x2="348.5554" y2="167.1501">
		<stop  offset="0" style="stop-color:#39B54A"/>
		<stop  offset="1" style="stop-color:#006838"/>
	</linearGradient>
	<path class="st6" d="M390.8,142.08l10.7,21.06h-23.58l-10.77-21.06L355.9,120l-0.5-0.93c-3.64-6.02-10.28-10.07-17.91-10.07H316.5
		v54.15h-20.99V45.33h74.32c8.82,0,16.72,3.57,22.46,9.3c5.74,5.81,9.3,13.78,9.3,22.53c0,12.87-7.62,24-18.61,28.97
		c-2.87,1.33-5.95,2.24-9.16,2.59c-0.01,0-0.02,0-0.03,0L390.8,142.08z M369.84,88.01c1.54,0,3.01-0.28,4.41-0.98
		c3.92-1.75,6.37-5.6,6.37-9.87c0-3.85-2.03-6.51-3.22-7.76c-1.4-1.33-3.85-3.08-7.56-3.08h-53.31v21.69H369.84z"/>
	<linearGradient id="SVGID_6_" gradientUnits="userSpaceOnUse" x1="471.8334" y1="24.7408" x2="471.8334" y2="167.1501">
		<stop  offset="0" style="stop-color:#39B54A"/>
		<stop  offset="1" style="stop-color:#006838"/>
	</linearGradient>
	<path class="st7" d="M531.86,163.14h-23.57l-10.77-21.06l-25.68-50.44l-25.68,50.44l-10.77,21.06h-23.57l10.7-21.06l49.32-96.76
		l49.32,96.76L531.86,163.14z"/>
	<linearGradient id="SVGID_7_" gradientUnits="userSpaceOnUse" x1="600.9461" y1="24.7408" x2="600.9461" y2="167.1501">
		<stop  offset="0" style="stop-color:#39B54A"/>
		<stop  offset="1" style="stop-color:#006838"/>
	</linearGradient>
	<path class="st8" d="M659.82,45.33v20.99h-85.98c-5.95,0-10.77,4.9-10.77,10.84v10.91h75.77v20.99h-75.84v54.01h-20.92V77.16
		c0-17.56,14.2-31.83,31.76-31.83H659.82z"/>
	<linearGradient id="SVGID_8_" gradientUnits="userSpaceOnUse" x1="735.5867" y1="24.7408" x2="735.5867" y2="167.1501">
		<stop  offset="0" style="stop-color:#39B54A"/>
		<stop  offset="1" style="stop-color:#006838"/>
	</linearGradient>
	<path class="st9" d="M794.46,45.33v20.99h-85.98c-5.95,0-10.77,4.9-10.77,10.84v10.91h75.77v20.99h-75.84v54.01h-20.92V77.16
		c0-17.56,14.2-31.83,31.76-31.83H794.46z"/>
	<linearGradient id="SVGID_9_" gradientUnits="userSpaceOnUse" x1="821.8604" y1="24.7408" x2="821.8604" y2="167.1501">
		<stop  offset="0" style="stop-color:#39B54A"/>
		<stop  offset="1" style="stop-color:#006838"/>
	</linearGradient>
	<path class="st10" d="M811.36,163.11V45.36h21.01v117.75H811.36z"/>
	<linearGradient id="SVGID_10_" gradientUnits="userSpaceOnUse" x1="906.4485" y1="24.7408" x2="906.4485" y2="167.1501">
		<stop  offset="0" style="stop-color:#39B54A"/>
		<stop  offset="1" style="stop-color:#006838"/>
	</linearGradient>
	<path class="st11" d="M868.53,104.24c0,20.92,17,37.92,37.92,37.92h58.9v20.99h-58.9c-32.53,0-58.91-26.37-58.91-58.91
		s26.37-58.91,58.91-58.91h58.9v20.99h-58.9C885.53,66.32,868.53,83.32,868.53,104.24z"/>
</g>
</svg>
